<svg width="27" height="28" viewBox="0 0 27 28" fill="none" xmlns="http://www.w3.org/2000/svg">
<g filter="url(#filter0_d_1_7529)">
<path d="M7.03695 7.91589H6.62028C5.8346 7.91589 5.44177 7.91589 5.19769 8.15997C4.95361 8.40406 4.95361 8.79689 4.95361 9.58256V16.6659C4.95361 17.4516 4.95361 17.8444 5.19769 18.0885C5.44177 18.3326 5.8346 18.3326 6.62028 18.3326H7.03695C7.82262 18.3326 8.21545 18.3326 8.45954 18.0885C8.70361 17.8444 8.70361 17.4516 8.70361 16.6659V9.58256C8.70361 8.79689 8.70361 8.40406 8.45954 8.15997C8.21545 7.91589 7.82262 7.91589 7.03695 7.91589Z" stroke="#DFDFDF" stroke-width="1.42857"/>
<path d="M8.70361 3.54089C8.70361 4.57643 7.86415 5.41589 6.82861 5.41589C5.79308 5.41589 4.95361 4.57643 4.95361 3.54089C4.95361 2.50536 5.79308 1.66589 6.82861 1.66589C7.86415 1.66589 8.70361 2.50536 8.70361 3.54089Z" stroke="#DFDFDF" stroke-width="1.42857"/>
<path d="M13.5586 7.91589H12.8703C12.0846 7.91589 11.6918 7.91589 11.4477 8.15997C11.2036 8.40406 11.2036 8.79689 11.2036 9.58256V16.6659C11.2036 17.4516 11.2036 17.8444 11.4477 18.0885C11.6918 18.3326 12.0846 18.3326 12.8703 18.3326H13.2869C14.0726 18.3326 14.4654 18.3326 14.7095 18.0885C14.9536 17.8444 14.9536 17.4516 14.9536 16.6659L14.9537 13.7493C14.9537 12.3686 15.3937 11.2493 16.6935 11.2493C17.3434 11.2493 17.8703 11.809 17.8703 12.4993V16.2493C17.8703 17.035 17.8703 17.4278 18.1144 17.6719C18.3584 17.916 18.7513 17.916 19.5369 17.916H19.9525C20.738 17.916 21.1308 17.916 21.3749 17.672C21.6189 17.428 21.619 17.0352 21.6192 16.2497L21.6204 11.6661C21.6204 9.59506 19.6506 7.91609 17.7009 7.91609C16.591 7.91609 15.6009 8.46014 14.9537 9.31089C14.9536 8.78581 14.9536 8.52331 14.8396 8.32839C14.7674 8.20494 14.6645 8.10217 14.5411 8.02995C14.3462 7.91589 14.0837 7.91589 13.5586 7.91589Z" stroke="#DFDFDF" stroke-width="1.42857" stroke-linejoin="round"/>
</g>
<defs>
<filter id="filter0_d_1_7529" x="-0.714355" y="0" width="28" height="28" filterUnits="userSpaceOnUse" color-interpolation-filters="sRGB">
<feFlood flood-opacity="0" result="BackgroundImageFix"/>
<feColorMatrix in="SourceAlpha" type="matrix" values="0 0 0 0 0 0 0 0 0 0 0 0 0 0 0 0 0 0 127 0" result="hardAlpha"/>
<feOffset dy="4"/>
<feGaussianBlur stdDeviation="2"/>
<feComposite in2="hardAlpha" operator="out"/>
<feColorMatrix type="matrix" values="0 0 0 0 0 0 0 0 0 0 0 0 0 0 0 0 0 0 0.25 0"/>
<feBlend mode="normal" in2="BackgroundImageFix" result="effect1_dropShadow_1_7529"/>
<feBlend mode="normal" in="SourceGraphic" in2="effect1_dropShadow_1_7529" result="shape"/>
</filter>
</defs>
</svg>
